# xmcd
#
# Track frame offsets:
#	150
#	21881
#	43883
#	67827
#	97163
#	120116
#	138615
#	164129
#	185459
#	208235
#
# Disc length: 3100 seconds
#
# Revision: 2
# Processed by: cddbd v1.5.2PL0 Copyright (c) Steve Scherf et al.
# Submitted via: EZCDAudioConverter 8.0.2.1
#
DISCID=930c1a0a
DTITLE=Bảo Yến - Tình Lỡ
DYEAR=2013
DGENRE=Country
TTITLE0=Nụ tình phai
TTITLE1=Tình lỡ
TTITLE2=Xin thời gian qua mau
TTITLE3=Tiễn đưa
TTITLE4=Thu hát cho người
TTITLE5=Ngọn trúc đào
TTITLE6=Biển nhớ
TTITLE7=Xin còn gọi tên nhau
TTITLE8=Thương ca mùa hạ
TTITLE9=Kiếp nào có yêu nhau
EXTD=
EXTT0=
EXTT1=
EXTT2=
EXTT3=
EXTT4=
EXTT5=
EXTT6=
EXTT7=
EXTT8=
EXTT9=
PLAYORDER=
